<?xml version="1.0" standalone="no"?>
<!DOCTYPE svg PUBLIC "-//W3C//DTD SVG 20010904//EN"
 "http://www.w3.org/TR/2001/REC-SVG-20010904/DTD/svg10.dtd">
<svg version="1.0" xmlns="http://www.w3.org/2000/svg"
 width="512.000000pt" height="512.000000pt" viewBox="0 0 512.000000 512.000000"
 preserveAspectRatio="xMidYMid meet">
<metadata>
Created by potrace 1.14, written by Peter Selinger 2001-2017
</metadata>
<g transform="translate(0.000000,512.000000) scale(0.100000,-0.100000)"
fill="#000000" stroke="none">
<path d="M588 3093 c-3 -1165 -3 -1189 -23 -1228 -28 -57 -64 -66 -272 -72
l-173 -6 0 -315 0 -315 173 6 c189 7 396 35 496 67 104 33 181 80 257 155 82
81 128 167 165 310 l23 90 3 1248 4 1247 -325 0 -325 0 -3 -1187z"/>
<path d="M1330 3823 c0 -786 32 -1194 121 -1548 102 -405 243 -702 488 -1027
l65 -88 198 0 198 0 62 78 c142 178 292 436 371 637 192 493 247 915 247 1918
l0 487 -327 0 -328 0 3 -477 c7 -857 -35 -1223 -185 -1635 -19 -54 -39 -96
-43 -93 -10 6 -71 166 -104 272 -89 286 -118 644 -117 1406 l1 527 -325 0
-325 0 0 -457z"/>
<path d="M3160 2720 l0 -1560 330 0 330 0 0 660 0 660 220 0 220 0 0 -660 0
-660 327 0 326 0 -6 257 c-4 141 -7 843 -7 1560 l0 1303 -320 0 -320 0 0 -585
0 -585 -220 0 -220 0 -2 43 c-1 23 -3 60 -4 82 -1 22 -2 266 -3 543 l-1 502
-325 0 -325 0 0 -1560z"/>
</g>
</svg>
